<svg xmlns="http://www.w3.org/2000/svg" viewBox="0 0 828 104.41"><title>Asset 1divider</title><g id="bc1d0dbf-68ab-4508-9bb3-d706e5ffd83b" data-name="Layer 2"><g id="b225ed9b-c3de-41ba-868a-5a242dd5a454" data-name="Layer 1"><path d="M382.66,67.68C390.83,76,402.5,80,414,80.33,425.5,80,437.17,76,445.34,67.68c7-7.31,11.82-16.52,19.52-23.2,3.89-3.67,8.55-6.33,12.95-9.3-4.71-.43-9.32-1.67-14-1.93-7.18-.08-14.62.21-21.24,3.3-9.81,4.41-16.81,13.23-26.64,17.61q-.93.39-1.89.72-1-.33-1.89-.72c-9.83-4.38-16.83-13.2-26.64-17.61-6.62-3.09-14.06-3.38-21.24-3.3-4.72.26-9.33,1.5-14,1.93,4.4,3,9.06,5.63,12.95,9.3C370.84,51.16,375.64,60.37,382.66,67.68ZM364.38,37.55H366c5.92,0,12.16.35,17.62,2.9,4.47,2,8.34,5.05,12.44,8.27,4.35,3.42,8.85,7,14.26,9.37.82.34,1.52.6,2.22.85l1.43.51,1.43-.51c.7-.25,1.4-.51,2.09-.79,5.54-2.47,10-6,14.38-9.42,4.1-3.23,8-6.27,12.39-8.26,5.52-2.57,11.76-2.92,17.69-2.92h1.64c.86.05,1.72.13,2.59.24a44.59,44.59,0,0,0-4.23,3.5c-4.69,4.09-8.31,8.94-11.81,13.64a100.29,100.29,0,0,1-7.93,9.77c-6.71,6.8-17,10.94-28.24,11.33-11.22-.39-21.53-4.53-28.29-11.37a102,102,0,0,1-7.88-9.73c-3.5-4.7-7.12-9.55-11.81-13.64a44.59,44.59,0,0,0-4.23-3.5C362.66,37.68,363.52,37.6,364.38,37.55Z"/><path d="M414,52.13A34.38,34.38,0,0,0,426.39,36c3.51-9.48,3.09-21.15-3.51-29.22A23.48,23.48,0,0,0,414,0a23.48,23.48,0,0,0-8.88,6.77c-6.6,8.07-7,19.74-3.51,29.22A34.38,34.38,0,0,0,414,52.13Zm-9.1-39.6A20.64,20.64,0,0,1,414,3.68a20.64,20.64,0,0,1,9.1,8.85c2.77,4.89,3,10.7,2.46,16.17A30.76,30.76,0,0,1,414,48.44,30.76,30.76,0,0,1,402.44,28.7C401.85,23.23,402.13,17.42,404.9,12.53Z"/><path d="M515.5,84.73c-1.52-3.68-5.11-5.87-8.35-7.86-10.5-6-23.42-5.79-34.71-2.31-6,2-12.15,4.25-17.22,8.19,15.06-.39,28.6,7.08,43,10.08a23.92,23.92,0,0,0,13.33-1c2.7-1.06,5.07-4.1,3.92-7.06Zm-16.21,3.65c-12.88-2.32-25.35-7.59-38.62-7.21A72,72,0,0,1,486.77,76c9,.36,18.66,3.22,24.51,10.47C507.72,88.69,503.36,89,499.29,88.38Z"/><path d="M322.58,76.87c-3.24,2-6.83,4.18-8.35,7.86h0c-1.15,3,1.22,6,3.92,7.06a23.92,23.92,0,0,0,13.33,1c14.43-3,28-10.47,43-10.08-5.07-3.94-11.17-6.24-17.22-8.19C346,71.08,333.08,70.87,322.58,76.87Zm7.86,11.51c-4.07.63-8.43.31-12-1.88C324.3,79.25,334,76.39,343,76a72,72,0,0,1,26.1,5.14C355.79,80.79,343.32,86.06,330.44,88.38Z"/><polygon points="413.69 87.97 413.69 87.97 413.68 87.97 413.69 87.97"/><path d="M559.11,31.22c-5.83-2.31-12.25-2.13-18.4-1.62-14.78,2.27-27.8,10.36-39.57,19.17a225.22,225.22,0,0,1-23,15.84C458.62,76,436.67,84.35,414,85.68c-22.67-1.33-44.62-9.64-64.12-21.07a225.22,225.22,0,0,1-23-15.84C315.09,40,302.07,31.87,287.29,29.6c-6.15-.51-12.57-.69-18.4,1.62-11.1,3.87-20.48,12.77-24.24,24a43,43,0,0,0,.19,27.53c10.17,29.62,42.29,25.68,51.58,7.36A22.4,22.4,0,0,0,299,74.52a19.38,19.38,0,0,0-14.11-15,21.45,21.45,0,0,0-15.08,1.65,12.41,12.41,0,0,0-6.47,7.41c-.62,2.08.16,4.2.77,6.2,7.31-11.94,17.5-9.86,22.91-6.64,7.71,4.44,9.62,15.63,4.92,22.91-4.09,6.54-12.18,9.51-19.64,9.3A21.67,21.67,0,0,1,257,95c-4.36-4-6.95-9.52-8.4-15.17-2.47-9.06-2-19.15,2.32-27.58a35.74,35.74,0,0,1,30.5-18.94c11.63.36,22.63,5,32.44,11s18.71,13.49,28.62,19.4c20,12.12,42.15,21.31,65.53,23.69q2.83.31,5.68.5h.62q2.85-.18,5.68-.5c23.38-2.38,45.57-11.57,65.53-23.69,9.91-5.91,18.74-13.44,28.62-19.4s20.81-10.65,32.44-11a35.74,35.74,0,0,1,30.5,18.94c4.37,8.43,4.79,18.52,2.32,27.58C578,85.5,575.36,91,571,95a21.67,21.67,0,0,1-15.27,5.32c-7.46.21-15.55-2.76-19.64-9.3-4.7-7.28-2.79-18.47,4.92-22.91,5.41-3.22,15.6-5.3,22.91,6.64.61-2,1.39-4.12.77-6.2a12.41,12.41,0,0,0-6.47-7.41,21.45,21.45,0,0,0-15.08-1.65,19.38,19.38,0,0,0-14.11,15,22.4,22.4,0,0,0,2.55,15.57c9.29,18.32,41.41,22.26,51.58-7.36a43,43,0,0,0,.19-27.53C579.59,44,570.21,35.09,559.11,31.22Z"/><path d="M229.76,62.58A8.63,8.63,0,0,0,222.22,69a8.9,8.9,0,0,0,5.7,10.74c5.55,2.31,12.15-2.8,11.8-8.68A8.78,8.78,0,0,0,229.76,62.58Zm2,13.39c-3.21.77-6.72-3-5.38-6.07a5.26,5.26,0,0,1,4.83-3.39,5.51,5.51,0,0,1,4.38,4.63A5,5,0,0,1,231.71,76Z"/><path d="M215.9,68.74H23.83a2.5,2.5,0,0,0-2.49,2.49v.3A2.5,2.5,0,0,0,23.83,74H215.9a2.5,2.5,0,0,0,2.49-2.49v-.3A2.5,2.5,0,0,0,215.9,68.74Z"/><path d="M7.85,62.58A8.6,8.6,0,0,0,.31,69,8.89,8.89,0,0,0,6,79.73c5.55,2.31,12.15-2.8,11.79-8.68A8.76,8.76,0,0,0,7.85,62.58ZM9.8,76c-3.21.77-6.72-3-5.38-6.07a5.26,5.26,0,0,1,4.83-3.39,5.52,5.52,0,0,1,4.38,4.63A5,5,0,0,1,9.8,76Z"/><path d="M818,62.58A8.63,8.63,0,0,0,810.49,69a8.89,8.89,0,0,0,5.7,10.74c5.55,2.31,12.15-2.8,11.8-8.68A8.78,8.78,0,0,0,818,62.58ZM820,76c-3.21.77-6.72-3-5.38-6.07a5.26,5.26,0,0,1,4.83-3.39,5.51,5.51,0,0,1,4.38,4.63A5,5,0,0,1,820,76Z"/><path d="M804.17,68.74H612.1a2.5,2.5,0,0,0-2.49,2.49v.3A2.5,2.5,0,0,0,612.1,74H804.17a2.5,2.5,0,0,0,2.49-2.49v-.3A2.5,2.5,0,0,0,804.17,68.74Z"/><path d="M596.12,62.58A8.6,8.6,0,0,0,588.58,69a8.89,8.89,0,0,0,5.7,10.74c5.55,2.31,12.15-2.8,11.79-8.68A8.76,8.76,0,0,0,596.12,62.58Zm2,13.39c-3.21.77-6.72-3-5.38-6.07a5.26,5.26,0,0,1,4.83-3.39,5.52,5.52,0,0,1,4.38,4.63A5,5,0,0,1,598.07,76Z"/></g></g></svg>